# xmcd CD database file
#
# Track frame offsets:
#	150
#	16390
#	34313
#	51040
#	69885
#	94688
#	108035
#	137963
#	155060
#	172125
#	191898
#	211873
#	230953
#	249928
#	263833
#	280900
#	305965
#	322455
#
# Disc length: 4538 seconds
#
# Revision: 0
# Processed by: cddbd v1.5.2PL0 Copyright (c) Steve Scherf et al.
# Submitted via: CDex 1.70beta2
#
DISCID=1411b812
DTITLE=Alexis Korner - Alexis Korner And...1972-1983
DYEAR=1992
DGENRE=Blues
TTITLE0=Gospel Ship
TTITLE1=Captain America
TTITLE2=The Thief
TTITLE3=Robert Johnson
TTITLE4=Get Off My Cloud
TTITLE5=Honky Tonk Woman
TTITLE6=Spoonful
TTITLE7=Daytime Song
TTITLE8=Lend Me Some Time
TTITLE9=Hey Pretty Mama
TTITLE10=Stump Blues
TTITLE11=I Got My Mojo Working
TTITLE12=Geneva
TTITLE13=Wreck Of The Old '97
TTITLE14=Casey Jones
TTITLE15=High Heeled Sneakers
TTITLE16=King B.B
TTITLE17=Juvenile Delinquent
EXTD=YEAR: 1992
EXTT0=
EXTT1=
EXTT2=
EXTT3=
EXTT4=
EXTT5=
EXTT6=
EXTT7=
EXTT8=
EXTT9=
EXTT10=
EXTT11=
EXTT12=
EXTT13=
EXTT14=
EXTT15=
EXTT16=
EXTT17=
PLAYORDER=
